<svg xmlns="http://www.w3.org/2000/svg" width="17" height="15" viewBox="0 0 17 15">
<symbol id="cart" viewBox="0 0 17 15"><g><g><path d="M16.95 3.913l-2.873 6.42a.63.63 0 0 1-.576.366H5.608A.626.626 0 0 1 5 10.251L2.432 1.222H.629a.622.622 0 0 1-.63-.611C0 .274.284 0 .63 0h2.274c.283 0 .535.183.608.448L6.08 9.476h7.002l2.327-5.197H7.652a.622.622 0 0 1-.63-.61c0-.337.284-.612.63-.612h8.72a.63.63 0 0 1 .525.275.604.604 0 0 1 .052.58zM5.01 12.228c.786 0 1.426.621 1.426 1.386 0 .764-.64 1.385-1.426 1.385-.786 0-1.425-.621-1.425-1.385 0-.765.64-1.386 1.425-1.386zm8.816 0c.786-.051 1.467.53 1.52 1.284a1.36 1.36 0 0 1-.347 1.009 1.437 1.437 0 0 1-.974.478h-.105c-.744 0-1.363-.57-1.415-1.294-.053-.754.534-1.426 1.32-1.477z"/></g></g>
</symbol></svg>