<svg xmlns="http://www.w3.org/2000/svg" width="118" height="39" viewBox="0 0 118 39"><g><g><path fill="#fff" d="M16.151.016l96.286-.051c3.14.061 5.634 2.648 5.572 5.779l-.541 27.682c-.062 3.131-2.656 5.619-5.795 5.558l-96.286.051a5.689 5.689 0 0 1-4.553-2.428L1.032 22.569a5.656 5.656 0 0 1 .13-6.658L11.506 2.265A5.69 5.69 0 0 1 16.15.015zm91.873 6.223l-.515 26.304a2.22 2.22 0 0 0 2.178 2.258 2.22 2.22 0 0 0 2.265-2.172l.515-26.303a2.219 2.219 0 0 0-2.178-2.259 2.22 2.22 0 0 0-2.265 2.172zM11.568 19.444a4.274 4.274 0 0 0 4.196 4.351 4.275 4.275 0 0 0 4.364-4.185 4.274 4.274 0 0 0-4.197-4.352 4.276 4.276 0 0 0-4.363 4.186z"/></g></g></svg>