<svg xmlns="http://www.w3.org/2000/svg" width="22" height="20" viewBox="0 0 22 20"><g><g><path fill="#fff" d="M22 8.64c0-1.654-.465-3.215-1.345-4.515a.557.557 0 0 0-.784-.147.581.581 0 0 0-.144.799c.75 1.107 1.146 2.443 1.146 3.863 0 1.415-.415 2.798-1.167 3.895a.581.581 0 0 0 .14.8.554.554 0 0 0 .784-.142C21.526 11.886 22 10.312 22 8.64zm-2.333.007a5.145 5.145 0 0 0-.864-2.9.557.557 0 0 0-.784-.146.581.581 0 0 0-.144.799c.435.643.665 1.42.665 2.247 0 .824-.24 1.628-.677 2.265a.581.581 0 0 0 .139.8.554.554 0 0 0 .785-.142c.576-.84.88-1.85.88-2.923zm-2.695 7.99c.054-.112.08-.259.08-.435V.7c0-.666-.393-.7-.472-.7-.186 0-.368.12-.541.355-.019.026-1.94 2.563-6.742 4.072-.351.11-.765.252-1.232.31-.259.032-.32-.023-.34-.061a.842.842 0 0 0-.74-.448H2.242a.855.855 0 0 0-.845.862v.32c0 .194-.135.203-.181.206l-.112.01C.495 5.67 0 6.212 0 6.835v3.23c0 .622.495 1.165 1.105 1.21l.158.013c.038.003.134.037.134.21v.313c0 .475.379.861.845.861h.367c.162 0 .194.167.194.167l1.312 6.093c.129.598.7 1.067 1.302 1.067h1.515a.96.96 0 0 0 .763-.354c.178-.226.242-.53.176-.836L6.59 12.857s-.049-.184.135-.184h.26c.318 0 .57-.194.738-.443.072-.107.222-.09.303-.074.477.098.91.205 1.272.319 4.802 1.511 6.723 4.046 6.741 4.071.174.236.356.356.542.356.168 0 .311-.097.392-.266z"/></g></g></svg>