<svg xmlns="http://www.w3.org/2000/svg" width="21" height="21" viewBox="0 0 21 21"><symbol id="box"><g><g><path d="M8.4 18.9c0 1.155-.945 2.1-2.1 2.1-1.155 0-2.1-.945-2.1-2.1 0-1.155.945-2.1 2.1-2.1 1.155 0 2.1.945 2.1 2.1zM3.465 0l.945 2.1h15.54c.63 0 1.05.42 1.05 1.05 0 .21 0 .315-.21.525L17.01 10.5c-.315.63-.945 1.05-1.785 1.05h-7.77l-.945 1.785v.105c0 .105.105.21.21.21H18.9v2.1H6.3c-1.155 0-2.1-.945-2.1-2.1 0-.315.105-.735.21-1.05l1.47-2.52L2.1 2.1H0V0zM18.9 18.9c0 1.155-.945 2.1-2.1 2.1-1.155 0-2.1-.945-2.1-2.1 0-1.155.945-2.1 2.1-2.1 1.155 0 2.1.945 2.1 2.1z"/></g></g></symbol></svg>