<svg xmlns="http://www.w3.org/2000/svg" width="19" height="23" viewBox="0 0 19 23"><symbol id="phone"><g><g><path d="M19 19.774s-.109.888-1.053 1.703c-.945.815-2.07 1.592-3.814 1.518-1.743-.074-6.32-4.332-8.753-7.22C2.946 12.886-.14 6.628.005 4.665.15 2.704 2.51.149 4.144 0c1.053.333 2.76 5.332 2.797 6.628-.11.556-.872.37-1.562.926-.217.175-.98.889-.98 1.777 0 .889 1.96 3.555 2.687 4.518.726.963 3.015 3.814 4.068 3.666 1.053-.148 1.198-1.129 1.816-1.703.835-.778 5.048 2.666 6.029 3.962z"/></g></g></symbol></svg>