<svg xmlns="http://www.w3.org/2000/svg" width="23" height="19" viewBox="0 0 23 19"><g><g><path fill="#fff" d="M21.295 13.452H19.78v2.142a.548.548 0 0 1-.547.557.523.523 0 0 1-.379-.172l-2.462-2.527H5.513c-.926 0-1.704-.771-1.704-1.735V1.735C3.809.792 4.566 0 5.513 0h15.782C22.221 0 23 .771 23 1.735v9.982c0 .942-.758 1.735-1.705 1.735zM7.933 5.376c-.863 0-1.578.729-1.578 1.607s.715 1.606 1.578 1.606c.884 0 1.578-.728 1.578-1.606 0-.878-.715-1.607-1.578-1.607zm5.534 0c-.862 0-1.578.729-1.578 1.607s.716 1.606 1.578 1.606c.863 0 1.579-.728 1.579-1.606 0-.878-.716-1.607-1.579-1.607zm5.514 0c-.863 0-1.579.729-1.579 1.607s.716 1.606 1.579 1.606c.862 0 1.578-.728 1.578-1.606 0-.878-.716-1.607-1.578-1.607zM5.513 14.48h7.092v1.628c0 .621-.505 1.135-1.116 1.135H4.335l-1.62 1.65a.345.345 0 0 1-.253.107.372.372 0 0 1-.358-.364v-1.414h-.989c-.631 0-1.136-.514-1.115-1.178V9.489c0-.621.505-1.135 1.115-1.135h1.726v3.406c0 1.5 1.199 2.72 2.672 2.72z"/></g></g></svg>