<svg xmlns="http://www.w3.org/2000/svg" width="18" height="18" viewBox="0 0 18 18"><g><g><path fill="#fff" d="M16.446 17.144a1.553 1.553 0 0 1-1.537-1.53l-.01-1.112c-.225-6.09-5.212-11.042-11.32-11.2a.1.1 0 0 0-.029.003L2.14 3.292a1.55 1.55 0 0 1-1.53-1.537A1.488 1.488 0 0 1 2.113.243l1.413.011c.037 0 .07.01.105.012 7.538.21 13.73 6.19 14.278 13.645.023.103.036.209.038.317l.003.619c.003.004.001.007.001.01l.007.782c.007.836-.67 1.51-1.51 1.505zM3.096 5.932l.545.004c4.647.04 8.49 3.71 8.753 8.357.004.032.009.058.009.088l.005.164c.003.055.008.11.007.167l-.006.923a1.615 1.615 0 0 1-1.64 1.635 1.688 1.688 0 0 1-1.672-1.664l-.023-.924c-.026-2.953-2.45-5.377-5.403-5.403l-1.302-.01A1.704 1.704 0 0 1 .69 7.582a1.637 1.637 0 0 1 1.651-1.658zm2.152 6.873c1.048 1.048 1.063 2.735.032 3.766-1.03 1.03-2.717 1.015-3.766-.033-1.048-1.049-1.063-2.734-.032-3.765 1.031-1.03 2.717-1.017 3.766.032z"/></g></g></svg>