<svg xmlns="http://www.w3.org/2000/svg" width="23" height="23" viewBox="0 0 23 23"><g><g><path fill="#fff" d="M22.48 12.745l-9.739 9.739a1.75 1.75 0 0 1-1.245.516c-.47 0-.913-.183-1.245-.516L.512 12.745a1.763 1.763 0 0 1 0-2.49l9.739-9.74A1.75 1.75 0 0 1 11.496 0c.47 0 .913.183 1.245.516l9.74 9.739a1.763 1.763 0 0 1 0 2.49zm-1.547-2.552l-8.13-8.13a1.835 1.835 0 0 0-1.307-.542c-.494 0-.958.192-1.307.542l-8.13 8.13c-.349.349-.541.813-.541 1.307s.192.958.542 1.307l8.129 8.13c.349.35.813.542 1.307.542s.958-.192 1.307-.542l8.13-8.13c.35-.349.541-.813.541-1.307s-.192-.958-.541-1.307zM12.51 20.645c-.542.542-1.488.542-2.03 0l-8.13-8.13a1.424 1.424 0 0 1-.42-1.015c0-.384.15-.744.42-1.015l8.13-8.13c.271-.272.632-.42 1.015-.42.384 0 .744.149 1.015.42l8.13 8.13c.271.27.42.631.42 1.015 0 .384-.15.744-.42 1.015zm2.213-11.443l.065.967c-1.158.287-2.043.906-2.673 1.874V7.988h1.003l-1.668-2.89-1.669 2.89h1.094v9.504h1.286c0-4.363 1.35-5.678 2.71-6.107l.078 1.147 2.77-1.861z"/></g></g></svg>