<svg xmlns="http://www.w3.org/2000/svg" width="17" height="17" viewBox="0 0 17 17"><g><g><path fill="#fff" d="M16.992 13.416a.823.823 0 0 1-.252.72l-2.394 2.378c-.108.12-.249.222-.423.306a1.749 1.749 0 0 1-.513.162l-.108.009c-.06.006-.138.009-.234.009-.228 0-.597-.04-1.106-.117-.51-.078-1.134-.27-1.872-.576-.738-.307-1.575-.766-2.51-1.378-.936-.612-1.932-1.453-2.988-2.521-.84-.829-1.536-1.621-2.088-2.377a16.944 16.944 0 0 1-1.332-2.098 11.316 11.316 0 0 1-.755-1.747 9.284 9.284 0 0 1-.342-1.35 4.46 4.46 0 0 1-.072-.892c.012-.216.018-.336.018-.36a1.75 1.75 0 0 1 .162-.514 1.35 1.35 0 0 1 .306-.423L2.882.252A.793.793 0 0 1 3.458 0c.156 0 .294.045.414.135.12.09.222.201.306.333l1.926 3.656a.877.877 0 0 1 .09.63c-.048.228-.15.42-.306.576l-.882.883a.3.3 0 0 0-.063.117.445.445 0 0 0-.027.135c.048.252.156.54.324.864.144.288.366.64.666 1.054.3.414.725.891 1.277 1.431.54.553 1.02.982 1.44 1.288.42.306.771.531 1.053.676.282.143.498.23.648.26l.225.046c.024 0 .063-.01.117-.027a.3.3 0 0 0 .117-.064l1.025-1.044c.217-.192.468-.288.756-.288.204 0 .366.036.486.108h.018l3.474 2.053c.252.156.401.354.45.594z"/></g></g></svg>