<svg xmlns="http://www.w3.org/2000/svg" width="22" height="21" viewBox="0 0 22 21"><defs><clipPath id="461ja"><path fill="#fff" d="M11 0l2.762 7.894 8.236.126-6.714 5.07 2.513 7.909L11 16.36 4.202 21l2.514-7.91L0 8.02l8.236-.126L11 0"/></clipPath></defs><g><g><path fill="#fff" d="M11 0l2.762 7.894 8.236.126-6.714 5.07 2.513 7.909L11 16.36 4.202 21l2.514-7.91L0 8.02l8.236-.126L11 0"/><path fill="none" stroke="#3ba8c5" stroke-linecap="round" stroke-linejoin="round" stroke-miterlimit="50" stroke-width="2" d="M11 0v0l2.762 7.894v0l8.236.126v0l-6.714 5.07v0l2.513 7.909v0L11 16.36v0L4.202 21v0l2.514-7.91v0L0 8.02v0l8.236-.126v0L11 0v0" clip-path="url(&quot;#461ja&quot;)"/></g></g></svg>