<svg xmlns="http://www.w3.org/2000/svg" width="22" height="21" viewBox="0 0 22 21"><defs><clipPath id="zw7ua"><path fill="#fff" d="M11 0l2.762 7.893 8.236.127-6.714 5.07 2.513 7.909L11 16.36 4.202 21l2.514-7.91L0 8.02l8.236-.127L11 0"/></clipPath><linearGradient id="zw7ub" x1="6.8" x2="7" y1="21" y2="0" gradientUnits="userSpaceOnUse"><stop offset="0" stop-color="#ffba00"/><stop offset="1" stop-color="#ffde00"/></linearGradient></defs><g><g><path fill="#fff" d="M11 0l2.762 7.893 8.236.127-6.714 5.07 2.513 7.909L11 16.36 4.202 21l2.514-7.91L0 8.02l8.236-.127L11 0"/><path fill="none" stroke="#3ba8c5" stroke-linecap="round" stroke-linejoin="round" stroke-miterlimit="50" stroke-width="2" d="M11 0v0l2.762 7.893v0l8.236.127v0l-6.714 5.07v0l2.513 7.909v0L11 16.36v0L4.202 21v0l2.514-7.91v0L0 8.02v0l8.236-.127v0L11 0v0" clip-path="url(&quot;#zw7ua&quot;)"/></g><g><path fill="#fff" d="M11 0l2.762 7.893L13.797 18 11 16.36 4.202 21l2.514-7.91L0 8.02l8.236-.127L11 0"/><path fill="url(#zw7ub)" d="M11 0l2.762 7.893L13.797 18 11 16.36 4.202 21l2.514-7.91L0 8.02l8.236-.127L11 0"/></g></g></svg>